<svg width="184" height="28" viewBox="0 0 184 28" fill="none" xmlns="http://www.w3.org/2000/svg">
<g clip-path="url(#clip0_1_756)">
<path d="M13.8 5.32007C13.8 3.32007 11.9 2.82007 10.4 2.82007V3.12007C11.3 3.12007 12 3.42007 12 4.12007C12 4.52007 11.7 5.12007 10.8 5.12007C10.1 5.12007 8.6 4.72007 7.5 4.32007C6.2 3.82007 5 3.42007 4 3.42007C2 3.42007 0.6 4.92007 0.6 6.62007C0.6 8.12007 1.7 8.62007 2.1 8.82007L2.2 8.62007C2 8.42007 1.7 8.22007 1.7 7.62007C1.7 7.22007 2.1 6.52007 3.1 6.52007C4 6.52007 5.2 6.92007 6.8 7.42007C8.2 7.82007 9.7 8.12007 10.5 8.22007V11.3201L9 12.6201V12.7201L10.5 14.0201V18.3201C9.7 18.8201 8.8 18.9201 8 18.9201C6.5 18.9201 5.2 18.5201 4.1 17.3201L8.2 15.3201V8.42007L3.2 10.6201C3.6 9.32007 4.7 8.42007 5.8 7.82007L5.7 7.52007C2.7 8.32007 0 11.1201 0 14.5201C0 18.5201 3.3 21.5201 7 21.5201C11 21.5201 13.6 18.3201 13.6 15.0201H13.4C12.8 16.3201 11.9 17.5201 10.8 18.1201V14.0201L12.4 12.7201V12.6201L10.8 11.3201V8.22007C12.3 8.22007 13.8 7.22007 13.8 5.32007ZM5.1 16.3201L3.9 16.9201C3.2 16.0201 2.8 14.8201 2.8 13.1201C2.8 12.4201 2.8 11.6201 3 11.0201L5.1 10.1201V16.3201ZM15.7 18.6201L14.4 19.6201L14.6 19.8201L15.2 19.3201L17.4 21.3201L20.4 19.3201L20.3 19.1201L19.5 19.6201L18.5 18.6201V11.8201L19.3 11.2201L21 12.6201V18.7201C21 22.5201 20.2 23.1201 18.5 23.7201V24.0201C21.3 24.1201 23.9 23.2201 23.9 18.3201V11.7201L24.8 11.0201L24.6 10.8201L23.8 11.4201L21.3 9.32007L18.5 11.4201V3.22007H18.3L14.8 5.62007V5.82007C15.2 6.02007 15.8 6.22007 15.8 7.32007L15.7 18.6201ZM34 17.5201L31.5 19.4201L29 17.4201V16.2201L33.7 13.0201V12.9201L31.3 9.32007L26.1 12.1201V18.7201L25.1 19.5201L25.3 19.7201L26.2 19.0201L29.6 21.5201L34.1 17.9201L34 17.5201ZM29 15.8201V10.9201L29.2 10.8201L31.4 14.3201L29 15.8201ZM53.1 4.42007C53.1 4.12007 53 3.82007 52.9 3.52007H52.7C52.4 4.32007 52 4.72007 51 4.72007C50.1 4.72007 49.5 4.22007 49.1 3.82007L46.2 7.12007L46.4 7.32007L47.4 6.42007C48 6.92007 48.5 7.32007 49.9 7.42007V15.7201L44 5.62007C43.5 4.82007 42.8 3.72007 41.4 3.72007C39.8 3.72007 38.4 5.12007 38.6 7.32007H38.9C39 6.72007 39.3 6.02007 40 6.02007C40.5 6.02007 41 6.52007 41.3 7.02007V10.3201C39.5 10.3201 38.3 11.1201 38.3 12.6201C38.3 13.4201 38.7 14.6201 39.9 14.9201V14.7201C39.7 14.5201 39.6 14.3201 39.6 14.0201C39.6 13.5201 40 13.1201 40.7 13.1201H41.2V17.3201C39.1 17.3201 37.4 18.5201 37.4 20.5201C37.4 22.4201 39 23.3201 40.8 23.2201V23.0201C39.7 22.9201 39.2 22.4201 39.2 21.7201C39.2 20.8201 39.8 20.4201 40.6 20.4201C41.4 20.4201 42.1 20.9201 42.6 21.5201L45.5 18.3201L45.3 18.1201L44.6 18.9201C43.5 17.9201 42.9 17.6201 41.6 17.4201V7.42007L49.6 21.4201H50.2V7.42007C51.7 7.32007 53.1 6.12007 53.1 4.42007ZM60.4 17.5201L57.9 19.4201L55.4 17.4201V16.2201L60.1 13.0201V12.9201L57.7 9.32007L52.5 12.1201V18.7201L51.5 19.5201L51.7 19.7201L52.6 19.0201L56 21.5201L60.5 17.9201L60.4 17.5201ZM55.4 15.8201V10.9201L55.6 10.8201L57.8 14.3201L55.4 15.8201ZM76.7 10.4201L76 10.9201L74.1 9.32007L71.9 11.3201L72.8 12.2201V19.7201L70.4 18.2201V12.0201L71.2 11.5201L68.9 9.32007L66.7 11.3201L67.6 12.2201V19.4201L67.3 19.6201L65.2 18.1201V12.1201C65.2 10.7201 64.5 10.3201 63.7 9.82007C63 9.32007 62.6 9.02007 62.6 8.32007C62.6 7.72007 63.2 7.42007 63.5 7.22007V7.02007C62.7 7.02007 60.6 7.82007 60.6 9.72007C60.6 10.7201 61.1 11.1201 61.6 11.6201C62.1 12.1201 62.6 12.5201 62.6 13.4201V19.2201L61.5 20.0201L61.7 20.2201L62.7 19.4201L65 21.4201L67.5 19.7201L70.3 21.4201L75.6 18.3201V11.6201L76.9 10.6201L76.7 10.4201ZM95.3 4.92007L94.3 5.82007L92.1 3.82007L88.8 6.22007V4.02007H88.5L88.6 20.2201C88.3 20.2201 87.4 20.0201 86.7 19.8201L86.5 6.32007C86.5 5.32007 85.8 3.92007 84 3.92007C82.2 3.92007 81 5.32007 81 6.72007H81.3C81.4 6.12007 81.7 5.62007 82.3 5.62007C82.9 5.62007 83.4 6.02007 83.4 7.32007V11.2201C81.6 11.3201 80.5 12.3201 80.5 13.6201C80.5 14.4201 80.9 15.6201 82.1 15.6201V15.4201C81.7 15.2201 81.6 14.9201 81.6 14.7201C81.6 14.1201 82.1 13.9201 82.9 13.9201H83.3V20.1201C81.8 20.6201 81.2 21.7201 81.2 22.9201C81.2 24.6201 82.5 25.8201 84.5 25.8201C85.9 25.8201 87.1 25.6201 88.3 25.3201C89.3 25.1201 90.6 24.8201 91.2 24.8201C92 24.8201 92.3 25.2201 92.3 25.7201C92.3 26.4201 92 26.7201 91.6 26.8201V27.0201C93.2 26.7201 94.2 25.7201 94.2 24.2201C94.2 22.7201 92.7 21.8201 91.1 21.8201C90.3 21.8201 88.6 22.1201 87.4 22.3201C86 22.6201 84.6 22.8201 84.2 22.8201C83.5 22.8201 82.7 22.5201 82.7 21.5201C82.7 20.7201 83.4 20.0201 85.1 20.0201C86 20.0201 87.1 20.1201 88.2 20.4201C89.4 20.7201 90.5 21.0201 91.5 21.0201C93 21.0201 94.3 20.5201 94.3 18.4201V6.12007L95.5 5.12007L95.3 4.92007ZM91.2 11.0201C90.9 11.3201 90.5 11.6201 90 11.6201C89.5 11.6201 89 11.3201 88.8 11.0201V6.62007L89.8 5.92007L91.2 7.22007V11.0201ZM91.2 14.0201C91 13.8201 90.5 13.5201 90 13.5201C89.5 13.5201 89 13.8201 88.8 14.0201V11.4201C89 11.6201 89.5 11.9201 90 11.9201C90.5 11.9201 91 11.6201 91.2 11.4201V14.0201ZM91.2 18.7201C91.2 19.5201 90.7 20.3201 89.6 20.3201H88.8V14.4201C89 14.2201 89.5 13.9201 90 13.9201C90.5 13.9201 90.9 14.2201 91.2 14.4201V18.7201ZM104.9 11.6201L101.7 9.32007L96.8 12.1201V18.6201L95.8 19.4201L95.9 19.6201L96.7 19.0201L99.9 21.4201L104.9 18.4201V11.6201ZM99.5 17.9201V10.7201L102 12.5201V19.6201L99.5 17.9201ZM114.4 9.52007H114.2C113.9 9.72007 113.6 9.92007 113.3 9.92007C112.9 9.92007 112.4 9.72007 112.2 9.42007H112L110.3 11.3201L108.6 9.42007L105.6 11.4201L105.7 11.6201L106.5 11.1201L107.5 12.2201V18.5201L106.2 19.5201L106.4 19.7201L107 19.2201L109.4 21.2201L112.5 19.1201L112.4 18.9201L111.5 19.4201L110.3 18.4201V11.4201C110.8 11.9201 111.4 12.4201 112.1 12.4201C113.5 12.5201 114.3 11.1201 114.4 9.52007ZM126.4 19.1201L123 21.4201L118.4 14.4201L121.7 9.32007H121.9C122.3 9.72007 122.9 10.1201 123.6 10.1201C124.3 10.1201 124.8 9.72007 125.1 9.32007H125.3C125.2 11.3201 123.8 12.5201 122.8 12.5201C121.8 12.5201 121.3 12.0201 120.7 11.7201L120.4 12.2201L125.4 19.6201L126.4 19.0201V19.1201ZM115.4 18.6201L114.1 19.6201L114.3 19.8201L114.9 19.3201L117.1 21.3201L120.1 19.3201L119.9 19.1201L119.1 19.6201L118.1 18.6201V3.22007H118L114.4 5.62007V5.82007C114.8 6.02007 115.4 6.12007 115.4 7.32007V18.6201ZM143 5.32007C143 3.32007 141.1 2.82007 139.6 2.82007V3.12007C140.5 3.12007 141.2 3.42007 141.2 4.12007C141.2 4.52007 140.9 5.12007 140 5.12007C139.3 5.12007 137.8 4.72007 136.7 4.32007C135.4 3.92007 134.2 3.52007 133.2 3.52007C131.2 3.52007 129.8 5.02007 129.8 6.72007C129.8 8.22007 130.9 8.72007 131.3 8.92007L131.4 8.72007C131.1 8.52007 130.8 8.32007 130.8 7.72007C130.8 7.32007 131.2 6.62007 132.2 6.62007C133.1 6.62007 134.3 7.02007 135.9 7.52007C137.3 7.92007 138.8 8.22007 139.6 8.32007V11.4201L138.1 12.7201V12.8201L139.6 14.1201V18.4201C138.8 18.9201 137.9 19.0201 137.1 19.0201C135.6 19.0201 134.3 18.6201 133.2 17.4201L137.3 15.4201V8.42007L132.3 10.6201C132.8 9.32007 133.9 8.42007 134.9 7.72007L134.8 7.52007C131.8 8.32007 129.1 11.0201 129.1 14.4201C129.1 18.4201 132.4 21.4201 136.1 21.4201C140.1 21.4201 142.7 18.2201 142.7 14.9201H142.5C141.9 16.2201 141 17.4201 139.9 18.0201V13.9201L141.5 12.6201V12.5201L140 11.2201V8.22007C141.5 8.22007 143 7.22007 143 5.32007ZM134.3 16.3201L133.1 16.9201C132.4 16.0201 132 14.8201 132 13.1201C132 12.4201 132.1 11.6201 132.3 11.0201L134.4 10.1201L134.3 16.3201ZM146.5 4.32007H146.4L144.4 6.02007V6.12007L146.1 8.02007H146.3L148.3 6.32007V6.22007L146.5 4.32007ZM149.5 19.1201L148.7 19.6201L147.7 18.6201V11.7201L148.7 11.0201L148.5 10.8201L147.8 11.4201L146 9.32007L143.1 11.3201L143.3 11.6201L144 11.1201L144.9 12.2201V18.7201L143.6 19.7201L143.7 19.9201L144.4 19.4201L146.6 21.4201L149.6 19.4201L149.5 19.1201ZM166.2 19.0201L165.5 19.5201L164.4 18.5201V11.7201L165.4 10.9201L165.2 10.7201L164.4 11.4201L162.1 9.32007L159.1 11.4201L156.8 9.32007L154 11.4201L152.2 9.32007L149.3 11.3201L149.4 11.6201L150.1 11.1201L151.1 12.2201V18.7201L150.3 19.5201L152.6 21.4201L154.8 19.4201L153.9 18.5201V11.7201L154.8 11.1201L156.3 12.5201V18.5201L155.5 19.3201L157.8 21.2201L160 19.2201L159.1 18.3201V11.7201L159.9 11.2201L161.5 12.6201V18.6201L160.8 19.3201L163.1 21.4201L166.2 19.3201V19.0201ZM174.9 17.5201L172.4 19.4201L169.9 17.4201V16.2201L174.6 13.0201V12.9201L172.2 9.32007L167 12.1201V18.9201L170.5 21.4201L175 17.8201L174.9 17.5201ZM169.9 15.8201V10.9201L170.1 10.8201L172.3 14.3201L169.9 15.8201ZM184 14.9201L182.1 13.4201C183.4 12.3201 183.9 10.8201 183.9 9.82007V9.22007H183.7C183.5 9.72007 183.1 10.2201 182.3 10.2201C181.5 10.2201 181 9.82007 180.5 9.22007L176 11.7201V15.3201L177.7 16.6201C176 18.1201 175.7 19.1201 175.7 19.9201C175.7 20.9201 176.2 21.6201 177 21.9201L177.1 21.7201C176.9 21.5201 176.7 21.4201 176.7 20.9201C176.7 20.6201 177.1 20.1201 177.9 20.1201C178.9 20.1201 179.5 20.8201 179.8 21.1201L184.1 18.5201V14.9201H184ZM182.9 11.9201C182.2 13.1201 180.7 14.3201 179.8 14.9201L178.7 14.0201V10.5201C179.1 11.5201 180.2 12.3201 181.3 12.3201C182 12.3201 182.4 12.2201 182.9 11.9201ZM181.2 19.9201C180.7 18.8201 179.5 18.0201 178.3 18.0201C178 18.0201 177.2 18.0201 176.4 18.5201C176.9 17.7201 178.2 16.3201 179.9 15.3201L181.1 16.3201L181.2 19.9201Z" fill="black"/>
</g>
<defs>
<clipPath id="clip0_1_756">
<rect width="184" height="25" fill="white" transform="translate(0 2.42004)"/>
</clipPath>
</defs>
</svg>
