<svg width="36" height="36" viewBox="0 0 36 36" fill="none" xmlns="http://www.w3.org/2000/svg">
<g clip-path="url(#clip0_9_98)">
<path d="M25.2148 9.75002H10.7849C10.1472 9.75055 9.5357 10.0044 9.08479 10.4553C8.63388 10.9062 8.38041 11.5176 8.37988 12.1553V26.5853C8.38041 27.223 8.63388 27.8344 9.08479 28.2853C9.5357 28.7362 10.1472 28.9895 10.7849 28.9901H17.9998V22.3771H15.5948V19.3661H17.9998V16.9672C17.9998 16.0105 18.3799 15.0931 19.0565 14.4165C19.733 13.74 20.6505 13.3598 21.6073 13.3598H24.0123V16.3664H22.8128C22.1491 16.3664 21.6133 16.3045 21.6133 16.9663V19.371H24.6191L23.4195 22.3781H21.6203V28.991H25.2279C25.8655 28.9905 26.4769 28.7372 26.9278 28.2863C27.3787 27.8353 27.6323 27.224 27.6329 26.5863V12.1562C27.6326 11.8393 27.5698 11.5254 27.448 11.2328C27.3262 10.9402 27.148 10.6749 26.9233 10.4514C26.6987 10.2279 26.4322 10.0509 26.139 9.93061C25.8458 9.81031 25.5317 9.74871 25.2148 9.75002Z" fill="#020000"/>
</g>
<defs>
<clipPath id="clip0_9_98">
<rect width="19.24" height="19.24" fill="white" transform="translate(8.37988 9.75)"/>
</clipPath>
</defs>
</svg>
