<svg width="32" height="32" viewBox="0 0 32 32" fill="none" xmlns="http://www.w3.org/2000/svg">
<g clip-path="url(#clip0_9_107)">
<path d="M16.0001 1.60022C8.04746 1.60022 1.6001 8.04758 1.6001 16.0002C1.6001 23.9529 8.04746 30.4002 16.0001 30.4002C18.4263 30.4002 20.7163 29.799 22.7227 28.7377C22.9489 28.6177 23.0364 28.3365 22.9164 28.1102C22.7964 27.8827 22.5152 27.7965 22.2889 27.9165C20.4114 28.909 18.2726 29.4715 16.0003 29.4715C12.279 29.4715 8.91388 27.964 6.47516 25.5265C4.03641 23.0865 2.52892 19.7214 2.52892 16.0001C2.52892 12.2789 4.03641 8.91374 6.47388 6.47502C8.91388 4.03626 12.279 2.52878 16.0003 2.52878C19.7216 2.52878 23.0867 4.03626 25.5254 6.47374C27.9642 8.91249 29.4704 12.2776 29.4704 15.9989C29.4704 17.0276 29.3554 18.0289 29.1378 18.9901C28.9603 19.7626 28.5679 20.4439 28.0341 20.9251C27.4978 21.4064 26.8279 21.6914 26.0466 21.6926C25.2079 21.6926 24.4529 21.3551 23.8966 20.8114V10.3826C23.8966 10.2601 23.8466 10.1401 23.7604 10.0538C23.6741 9.9676 23.5541 9.91758 23.4316 9.91758L8.56793 9.91883C8.44544 9.91883 8.32544 9.96883 8.2392 10.0551C8.15295 10.1413 8.10295 10.2613 8.10295 10.3838V20.9989C8.10295 21.1214 8.15295 21.2414 8.2392 21.3276C8.32545 21.4138 8.44545 21.4638 8.56793 21.4638H23.2329C23.9554 22.1789 24.9492 22.6251 26.0467 22.6251C27.0629 22.6263 27.9679 22.2401 28.6554 21.6188C29.3454 20.9976 29.8254 20.1476 30.0429 19.2013V19.2001C30.2766 18.1688 30.4004 17.0988 30.4004 16.0001C30.4004 8.04746 23.9527 1.60022 16.0001 1.60022ZM22.9675 20.5327H9.03242V12.7401L15.7287 17.5577C15.89 17.6739 16.11 17.6739 16.2712 17.5577L22.9676 12.7401L22.9675 20.5327ZM22.9675 11.5951L16.0001 16.6089L9.03274 11.5951V10.8464H22.9678L22.9675 11.5951Z" fill="#020000"/>
</g>
<defs>
<clipPath id="clip0_9_107">
<rect width="32" height="32" fill="white"/>
</clipPath>
</defs>
</svg>
