<svg width="36" height="36" viewBox="0 0 36 36" fill="none" xmlns="http://www.w3.org/2000/svg">
<g clip-path="url(#clip0_9_94)">
<path d="M26.8029 14.5159C26.2811 13.5871 25.7145 13.416 24.5621 13.352C23.4097 13.288 20.5142 13.2422 18.0045 13.2422C15.4948 13.2422 12.5933 13.2741 11.4419 13.3511C10.2905 13.428 9.72381 13.5861 9.19708 14.5159C8.67036 15.4458 8.38354 17.0404 8.38354 19.853V19.8633C8.38354 22.6628 8.65937 24.2727 9.19708 25.1906C9.7348 26.1084 10.2895 26.2902 11.4409 26.3652C12.5923 26.4402 15.4908 26.4721 18.0045 26.4721C20.5182 26.4721 23.4107 26.4322 24.5631 26.3662C25.7155 26.3002 26.2821 26.1204 26.8038 25.1916C27.3466 24.2737 27.6204 22.6648 27.6204 19.8642V19.8545C27.6204 17.0399 27.3466 15.4398 26.8029 14.5159ZM15.5978 23.4648V16.2476L21.6095 19.8564L15.5978 23.4648Z" fill="#020000"/>
</g>
<defs>
<clipPath id="clip0_9_94">
<rect width="19.24" height="13.23" fill="white" transform="translate(8.37988 13.2402)"/>
</clipPath>
</defs>
</svg>
