<svg width="36" height="36" viewBox="0 0 36 36" fill="none" xmlns="http://www.w3.org/2000/svg">
<g clip-path="url(#clip0_9_87)">
<path d="M21.6033 9.37988H14.3873C12.7927 9.38015 11.2636 10.0139 10.1361 11.1414C9.0086 12.2689 8.37502 13.798 8.37476 15.3925V22.6078C8.37476 24.2024 9.00818 25.7314 10.1357 26.8589C11.2633 27.9865 12.7927 28.6199 14.3873 28.6199H21.6023C22.3919 28.6199 23.1737 28.4648 23.9032 28.1626C24.6327 27.8604 25.2954 27.4173 25.8537 26.8589C26.412 26.3006 26.8549 25.6381 27.1571 24.9086C27.4593 24.1791 27.6148 23.3974 27.6148 22.6078V15.3925C27.6145 13.7982 26.9811 12.2693 25.8538 11.1418C24.7265 10.0144 23.1976 9.38041 21.6033 9.37988ZM25.8115 22.6078C25.8102 23.7235 25.3664 24.7927 24.5775 25.5816C23.7886 26.3706 22.719 26.8147 21.6033 26.816H14.3873C13.2714 26.8149 12.2016 26.3711 11.4124 25.5821C10.6233 24.7932 10.1793 23.7236 10.178 22.6078V15.3925C10.1793 14.2767 10.6233 13.2071 11.4124 12.4182C12.2016 11.6292 13.2714 11.1854 14.3873 11.1843H21.6023C22.718 11.1856 23.7876 11.6293 24.5765 12.4182C25.3654 13.2071 25.8092 14.2768 25.8105 15.3925L25.8115 22.6078Z" fill="#020000"/>
<path d="M17.9977 14.1919C17.0464 14.1919 16.1165 14.4741 15.3255 15.0026C14.5345 15.5311 13.9179 16.2825 13.5539 17.1614C13.1898 18.0403 13.0946 19.0074 13.2802 19.9405C13.4658 20.8735 13.9238 21.7306 14.5965 22.4033C15.2692 23.076 16.1263 23.5341 17.0594 23.7197C17.9924 23.9053 18.9596 23.8099 19.8385 23.4459C20.7174 23.0818 21.4686 22.4656 21.9971 21.6746C22.5257 20.8836 22.8077 19.9532 22.8077 19.0019C22.8077 17.7262 22.3009 16.503 21.3989 15.601C20.4968 14.6989 19.2734 14.1919 17.9977 14.1919ZM17.9977 22.008C17.4033 22.008 16.8221 21.8316 16.3279 21.5014C15.8336 21.1711 15.4484 20.702 15.2209 20.1528C14.9934 19.6036 14.9338 18.9992 15.0497 18.4162C15.1656 17.8332 15.4517 17.2977 15.872 16.8773C16.2923 16.4569 16.8277 16.1705 17.4107 16.0544C17.9937 15.9383 18.598 15.9974 19.1472 16.2247C19.6965 16.4521 20.166 16.8375 20.4964 17.3317C20.8268 17.8259 21.0033 18.4065 21.0035 19.0009C21.0025 19.7979 20.6855 20.5619 20.1221 21.1255C19.5586 21.6892 18.7946 22.0067 17.9977 22.008Z" fill="#020000"/>
<path d="M23.1698 14.4705C23.5238 14.4705 23.8108 14.1835 23.8108 13.8295C23.8108 13.4755 23.5238 13.1885 23.1698 13.1885C22.8158 13.1885 22.5288 13.4755 22.5288 13.8295C22.5288 14.1835 22.8158 14.4705 23.1698 14.4705Z" fill="#231F20"/>
</g>
<defs>
<clipPath id="clip0_9_87">
<rect width="19.24" height="19.24" fill="white" transform="translate(8.37988 9.37988)"/>
</clipPath>
</defs>
</svg>
