<svg width="182" height="23" viewBox="0 0 182 23" fill="none" xmlns="http://www.w3.org/2000/svg">
<path d="M21.5038 23V14.0067C21.5038 10.806 20.1767 9.15487 17.6542 9.15487C17.0831 9.13233 16.5141 9.23679 15.9883 9.46073C15.4625 9.68466 14.9929 10.0225 14.6135 10.4498C13.9655 11.29 13.7713 12.1312 13.7713 14.0067V23H10.7638V14.0067C10.7638 11.9682 10.6632 11.5164 10.1178 10.6742C9.78417 10.1808 9.329 9.78172 8.79622 9.51541C8.26344 9.24911 7.67104 9.1246 7.07613 9.15386C6.51724 9.14111 5.96172 9.24371 5.44426 9.45526C4.92681 9.66682 4.45852 9.98278 4.06864 10.3834C3.32406 11.1884 3.09767 12.0648 3.09767 14.0057V22.999H0.0871582V6.82554H2.90448V8.57228C3.44397 7.84052 4.16042 7.25771 4.98667 6.87846C5.81292 6.49921 6.72194 6.33594 7.62853 6.40395C8.62323 6.36474 9.61023 6.59325 10.4865 7.06563C11.3628 7.53801 12.0962 8.23694 12.6102 9.08946C13.1473 8.19845 13.9225 7.47503 14.8485 7.00059C15.7744 6.52615 16.8144 6.31952 17.8514 6.40395C22.025 6.40395 24.5154 8.89527 24.5154 13.1323V23H21.5069H21.5038Z" fill="#231F20"/>
<path d="M48.8505 22.5781V20.0556C47.621 21.9955 45.5502 22.9997 42.8013 22.9997C41.6973 23.0092 40.6026 22.796 39.5828 22.3729C38.563 21.9498 37.6389 21.3254 36.8658 20.5372C36.0927 19.7489 35.4865 18.8128 35.0834 17.7849C34.6802 16.7571 34.4884 15.6584 34.5194 14.5548C34.4844 13.4333 34.6769 12.3163 35.0851 11.2711C35.4933 10.2259 36.1089 9.2742 36.8948 8.47329C37.6806 7.67238 38.6205 7.03886 39.6578 6.61089C40.695 6.18292 41.8082 5.96935 42.9301 5.98307C45.4215 5.98307 47.8162 7.08384 48.8505 8.73298V6.40366H51.6679V22.5781H48.8505ZM37.5279 14.587C37.5868 15.6764 37.9652 16.7244 38.6157 17.6002C39.2663 18.476 40.1604 19.1409 41.1863 19.5119C42.2123 19.883 43.3248 19.9437 44.3851 19.6867C45.4454 19.4296 46.4065 18.8661 47.1486 18.0664C47.8908 17.2667 48.3811 16.2662 48.5583 15.1897C48.7356 14.1131 48.592 13.0083 48.1454 12.0128C47.6989 11.0174 46.9692 10.1755 46.0473 9.59202C45.1254 9.00858 44.0521 8.70947 42.9613 8.73198C41.467 8.79457 40.0578 9.44476 39.0405 10.5411C38.0231 11.6374 37.4799 13.0911 37.5289 14.586L37.5279 14.587Z" fill="#231F20"/>
<path d="M76.2846 6.82556L71.0122 14.7181L76.6408 23H73.0829L69.1035 17.2738L65.1894 23H61.6677L67.2652 14.7181L61.8619 6.82556H65.5506L69.1085 12.1583L72.602 6.82556H76.2846Z" fill="#231F20"/>
<path d="M86.6438 22.5691V0.986389H89.6845V8.65353C90.3244 7.77544 91.1685 7.06626 92.1437 6.58717C93.1189 6.10808 94.1958 5.87348 95.2819 5.90362C97.5368 5.95015 99.6815 6.88863 101.246 8.51343C102.81 10.1382 103.666 12.3168 103.627 14.5719C103.64 15.6745 103.433 16.7685 103.019 17.7903C102.605 18.8122 101.991 19.7416 101.215 20.5244C100.438 21.3071 99.514 21.9278 98.4955 22.3501C97.477 22.7725 96.3845 22.9882 95.2819 22.9846C94.1607 23.061 93.0386 22.8518 92.0201 22.3767C91.0017 21.9016 90.1202 21.1761 89.4582 20.2679V22.5651H86.6409L86.6438 22.5691ZM89.5879 14.419C89.5512 15.1742 89.6691 15.929 89.9343 16.6371C90.1995 17.3452 90.6065 17.9916 91.1304 18.5369C91.6543 19.0821 92.284 19.5147 92.9809 19.808C93.6778 20.1014 94.4273 20.2493 95.1834 20.2428C96.6613 20.1502 98.0479 19.4958 99.0588 18.4138C100.07 17.3318 100.628 15.904 100.62 14.4232C100.612 12.9425 100.038 11.5208 99.0158 10.4497C97.9933 9.37863 96.5998 8.73923 95.121 8.66259C94.3802 8.67672 93.6495 8.83662 92.9706 9.13315C92.2916 9.42968 91.6778 9.85704 91.164 10.3908C90.6503 10.9246 90.2465 11.5544 89.9761 12.2441C89.7057 12.9339 89.5738 13.6702 89.5879 14.4109V14.419Z" fill="#231F20"/>
<path d="M131.068 14.0319C131.118 15.7659 130.648 17.4752 129.721 18.9413C128.793 20.4073 127.45 21.5634 125.862 22.2619C124.274 22.9603 122.514 23.1693 120.806 22.8622C119.099 22.5551 117.522 21.7458 116.277 20.5378C115.032 19.3298 114.175 17.7779 113.817 16.0806C113.458 14.3833 113.614 12.6176 114.264 11.0093C114.915 9.40099 116.03 8.02314 117.467 7.05188C118.905 6.08061 120.599 5.56006 122.334 5.55676C123.465 5.53396 124.59 5.73571 125.643 6.15033C126.696 6.56495 127.657 7.18422 128.469 7.97233C129.281 8.76044 129.929 9.70177 130.375 10.7419C130.821 11.7819 131.057 12.9002 131.068 14.0319ZM116.641 13.9987C116.637 15.1292 116.97 16.2352 117.596 17.1765C118.222 18.1178 119.114 18.8521 120.158 19.2862C121.202 19.7203 122.351 19.8347 123.46 19.6149C124.569 19.3952 125.587 18.8511 126.387 18.0517C127.186 17.2523 127.73 16.2335 127.95 15.1246C128.17 14.0156 128.055 12.8664 127.621 11.8225C127.187 10.7787 126.453 9.88721 125.512 9.26111C124.57 8.63501 123.464 8.30248 122.334 8.30566C120.829 8.32266 119.391 8.92805 118.327 9.99225C117.263 11.0565 116.657 12.4939 116.641 13.9987Z" fill="#231F20"/>
<path d="M152.395 23V14.2009C152.395 10.7728 151.102 9.15487 148.383 9.15487C145.732 9.15487 144.145 11.0304 144.145 14.2009V23H141.072V6.82554H143.889V8.53606C144.462 7.82667 145.194 7.26316 146.027 6.89182C146.859 6.52048 147.768 6.3519 148.678 6.39993C149.571 6.34355 150.465 6.47681 151.303 6.79093C152.141 7.10505 152.902 7.59292 153.538 8.22247C154.174 8.85202 154.669 9.60899 154.991 10.4436C155.313 11.2782 155.455 12.1716 155.407 13.0649V22.996H152.398L152.395 23Z" fill="#231F20"/>
<path d="M181.395 17.4991C180.837 19.1119 179.788 20.5097 178.396 21.4963C177.003 22.4828 175.337 23.0086 173.631 22.9999C171.407 22.9056 169.306 21.9504 167.774 20.3361C166.241 18.7217 165.396 16.5748 165.417 14.3488C165.438 12.1228 166.323 9.99223 167.886 8.40716C169.449 6.82209 171.567 5.90673 173.793 5.85448C175.979 5.91113 178.055 6.82444 179.574 8.39754C181.093 9.97064 181.933 12.0776 181.913 14.2642C181.913 14.5872 181.882 15.2352 181.812 15.8167H168.451C168.691 17.058 169.353 18.1779 170.325 18.9861C171.297 19.7943 172.52 20.2409 173.784 20.25C174.724 20.2514 175.646 19.9959 176.452 19.5111C177.257 19.0262 177.915 18.3305 178.354 17.4991H181.395ZM178.904 13.4884C178.81 12.151 178.208 10.9003 177.222 9.99216C176.235 9.08404 174.939 8.58721 173.599 8.60337C172.864 8.6199 172.141 8.78631 171.473 9.0924C170.805 9.39848 170.207 9.83777 169.716 10.3833C168.957 11.2466 168.513 12.3408 168.454 13.4884H178.904Z" fill="#231F20"/>
</svg>
